<svg xmlns="http://www.w3.org/2000/svg" xmlns:svg="http://www.w3.org/2000/svg" xmlns:xlink="http://www.w3.org/1999/xlink" id="svg13781" width="20.938" height="46.397" version="1.1"><defs id="defs13783"><linearGradient id="linearGradient13390" x1="23.335" x2="23.335" y1="-18.569" y2="-4.123" gradientTransform="matrix(0.9999999,0,0,0.9375,3.0396233,-28.149694)" gradientUnits="userSpaceOnUse" xlink:href="#linearGradient3161"/><linearGradient id="linearGradient3161"><stop id="stop3163" offset="0" style="stop-color:#d3d7cf;stop-opacity:1"/><stop id="stop3165" offset="1" style="stop-color:#bbc1b5;stop-opacity:1"/></linearGradient><linearGradient id="linearGradient3494"><stop style="stop-color:#2e3436;stop-opacity:.82474226" id="stop3496" offset="0"/><stop style="stop-color:#2e3436;stop-opacity:0" id="stop3498" offset="1"/></linearGradient><linearGradient id="linearGradient3506"><stop style="stop-color:#555753;stop-opacity:1" id="stop3508" offset="0"/><stop style="stop-color:#555753;stop-opacity:.22680412" id="stop3510" offset="1"/></linearGradient><linearGradient id="linearGradient13747"><stop style="stop-color:#2e3436;stop-opacity:.82474226" id="stop13749" offset="0"/><stop style="stop-color:#2e3436;stop-opacity:0" id="stop13751" offset="1"/></linearGradient><linearGradient id="linearGradient13754"><stop style="stop-color:#555753;stop-opacity:1" id="stop13756" offset="0"/><stop style="stop-color:#555753;stop-opacity:.22680412" id="stop13758" offset="1"/></linearGradient><linearGradient id="linearGradient13403" x1="19.004" x2="29.02" y1="19.002" y2="32.577" gradientTransform="matrix(1,0,0,1.000141,647.46936,253.34395)" gradientUnits="userSpaceOnUse" xlink:href="#linearGradient4862"/><linearGradient id="linearGradient4862"><stop id="stop4864" offset="0" style="stop-color:#fff;stop-opacity:1"/><stop id="stop4866" offset="1" style="stop-color:#fff;stop-opacity:0"/></linearGradient></defs><metadata id="metadata13786"/><g id="layer1" transform="translate(-406.67409,-486.23661)"><g id="g13418" transform="translate(-254.85716,231.89286)"><g id="g13364" transform="translate(647.46936,253.34903)"><rect id="rect13368" width="13.96" height="14.931" x="17.54" y="-46.431" rx=".565" ry=".565" transform="scale(1,-1)" style="fill:url(#linearGradient13390);fill-opacity:1;stroke:#555753;stroke-width:.9999997;stroke-linejoin:miter;stroke-miterlimit:4;stroke-dasharray:none;stroke-opacity:1"/><rect style="fill:#000" id="rect13372" width="3.079" height="3.113" x="20.5" y="-43.404" transform="scale(1,-1)"/><rect id="rect13376" width="3.079" height="3.113" x="25.5" y="-43.404" transform="scale(1,-1)" style="fill:#000"/></g><rect style="display:inline;fill:#204a87;fill-opacity:1;stroke:#2e3436;stroke-width:1;stroke-linecap:round;stroke-linejoin:round;stroke-miterlimit:4;stroke-dasharray:none;stroke-opacity:1" id="rect13378" width="19.954" height="35.983" x="662.023" y="254.849" rx="1.625" ry="1.621"/><rect id="rect13380" width="18.044" height="34" x="662.969" y="255.849" rx=".625" ry=".624" style="display:inline;fill:none;stroke:#729fcf;stroke-width:1;stroke-linecap:round;stroke-linejoin:round;stroke-miterlimit:4;stroke-dasharray:none;stroke-opacity:1"/><path id="path13386" d="m 670.06595,283.54012 c 0,-1.26928 0.4293,-1.59861 0.95515,-2.04177 0.42215,-0.20026 0.48961,-0.33698 0.48406,-0.98102 -0.006,-0.71173 -0.0755,-0.63043 -1.41785,-1.77552 -2.04958,-1.74834 -2.32521,-2.1699 -2.5659,-3.92428 -0.17752,-1.29389 -0.053,-1.00927 -0.56259,-1.50699 -0.93794,-0.91607 -0.77725,-2.25954 0.33931,-2.83694 1.00588,-0.52016 2.19747,0.0331 2.56493,1.19084 0.18111,0.57061 -0.25308,1.55602 -0.8361,1.89756 -0.53352,0.31255 -0.75487,-0.20854 -0.63286,0.94358 0.0675,0.63766 0.23208,1.37099 0.36567,1.62963 0.22945,0.44421 2.47619,2.53531 2.72059,2.53531 l 0,-12.35308 -1.2454,0 c 0.57609,-0.98232 1.13745,-1.98018 1.69551,-2.96841 l 1.77729,2.96841 -1.21057,0 0,8.3665 c 0.16837,0 1.81906,-1.64624 2.37451,-2.38742 0.23998,-0.32023 0.38562,-0.77493 0.38562,-1.20398 0,-0.6471 0.21716,-0.78316 -0.2851,-0.78316 l -0.5351,0 0,-3.03225 3.03224,0 0,3.03225 -0.49051,0 c -0.43766,0.0504 -0.75049,0.26957 -0.83311,0.9871 -0.12323,1.07009 -0.5896,1.7724 -2.30593,3.47246 l -1.34262,1.42276 0,5.07396 0.39676,0.23269 c 0.26978,0.12798 0.64133,0.54152 0.82567,0.91899 0.65696,1.34525 -0.25607,2.79186 -1.76209,2.79186 -1.09135,-0.0393 -1.89158,-0.59003 -1.89158,-1.66908 z" style="opacity:.95;fill:#eeeeec;fill-opacity:1;stroke:none"/></g></g></svg>